<svg width="34" xmlns="http://www.w3.org/2000/svg" viewBox="0 0 34 34" height="34">
 <g fill-rule="evenodd">
  <circle fill-rule="nonzero" cy="17" cx="17" r="17" fill="#4f5bf9"/>
  <path d="m21.036 11.187c-0.35507-0.28359-0.88264-0.23919-1.1795 0.099598l-4.9006 5.5867-2.2535-2.1531c-0.15702-0.15-0.37014-0.23439-0.59206-0.23439s-0.43504 0.084398-0.59206 0.23439l-2.2732 2.1715c-0.32701 0.31239-0.32701 0.81878 0 1.1312l5.3829 5.1431c0.15744 0.1504 0.37056 0.23439 0.59206 0.23439 0.012143 0 0.024704 0 0.036846-0.0008 0.2349-0.0095997 0.4543-0.1136 0.60504-0.28559l7.7424-8.827c0.14278-0.1628 0.21187-0.37279 0.19219-0.58399s-0.12603-0.40679-0.29645-0.54279z" fill="#fff"/>
 </g>
</svg>
