<svg width="34" xmlns="http://www.w3.org/2000/svg" viewBox="0 0 34 34" height="34">
 <g fill-rule="evenodd">
  <circle fill-rule="nonzero" cy="17" cx="17" r="17" fill="#b8b9d1"/>
  <path d="m16.5 22c0.82878 0 1.5 0.67122 1.5 1.4992 0 0.82956-0.67122 1.5008-1.5 1.5008s-1.5-0.67122-1.5-1.5008c0-0.82801 0.67122-1.4992 1.5-1.4992m1.2537-2.3501c-0.0007809 0.74503-0.59814 1.3501-1.3337 1.3501s-1.3337-0.60504-1.3337-1.3501c-0.0070277-0.38991-0.010932-0.62323-0.010932-0.70944 0-0.87236 0.1429-1.5897 0.43025-2.1544 0.28423-0.56154 0.85348-1.1958 1.7101-1.9021 0.85739-0.70232 1.3696-1.1634 1.5367-1.3833 0.25925-0.34562 0.38809-0.72763 0.38809-1.1428 0-0.57182-0.22801-1.0653-0.68716-1.4727-0.45524-0.41127-1.0706-0.61611-1.8452-0.61611-0.74728 0-1.3696 0.21592-1.8741 0.64458-0.50131 0.43262-0.84645 1.0883-1.0346 1.9701-0.084333 0.67622-0.65436 1.1998-1.3446 1.1998-0.74807 0-1.3548-0.61374-1.3548-1.3714 0-0.060108 0.0031234-0.11626 0.010151-0.174 0.078086-1.2639 0.60829-2.3332 1.5937-3.2158 0.98545-0.88422 2.2801-1.3224 3.8801-1.3224 1.6859 0 3.0266 0.44686 4.0222 1.3366s1.4938 1.9235 1.4938 3.109c0 0.65091-0.18116 1.2749-0.54738 1.8578-0.36622 0.58368-1.1455 1.3801-2.3441 2.3885-0.61844 0.51962-1.0026 0.94038-1.1526 1.2575-0.14914 0.31715-0.2163 0.88185-0.20224 1.7004" fill="#fff"/>
 </g>
</svg>