<svg xmlns="http://www.w3.org/2000/svg" width="86" viewBox="0 0 86 86" height="86">
 <g fill-rule="evenodd">
  <path d="m43 64.333c-11.763 0-21.333-9.5701-21.333-21.333s9.5701-21.333 21.333-21.333 21.333 9.5701 21.333 21.333-9.5701 21.333-21.333 21.333m30.231-24.493-0.1856-0.11378c-3.0436-1.8652-4.0924-5.782-2.3893-8.9173l0.10382-0.18844c0.62009-1.142 0.60302-2.4967-0.047644-3.6231s-1.8162-1.8183-3.1147-1.8503l-0.20267-0.0049778c-3.5748-0.0896-6.4455-2.9604-6.5351-6.5337l-0.0049778-0.20338c-0.032711-1.3013-0.72462-2.4647-1.851-3.1154-1.1257-0.65138-2.4811-0.66844-3.6238-0.046933l-0.18702 0.10169c-3.1367 1.7045-7.0542 0.65422-8.9202-2.3908l-0.11236-0.18347c-0.67982-1.1093-1.8603-1.7707-3.1602-1.7707s-2.4804 0.66133-3.1588 1.7692l-0.11378 0.18631c-1.8652 3.0428-5.7835 4.0932-8.918 2.3886l-0.18844-0.1024c-1.1435-0.62151-2.4981-0.60373-3.6231 0.046933-1.1264 0.65067-1.8183 1.8148-1.851 3.1168l-0.0049777 0.20053c-0.0896 3.5748-2.9604 6.4455-6.5365 6.5344l-0.20053 0.0049778c-1.2999 0.032-2.4647 0.72462-3.1154 1.8503-0.65067 1.1257-0.66844 2.4796-0.046933 3.6238l0.10169 0.18773c1.7038 3.136 0.65493 7.0528-2.3872 8.918l-0.18631 0.11378s-0.0007111 0-0.0007111 0.0007111c-1.1079 0.67982-1.77 1.861-1.77 3.1602s0.66204 2.4804 1.7692 3.1595l0.1856 0.11307c3.0436 1.8652 4.0924 5.7828 2.3893 8.9173l-0.10382 0.18844c-0.62009 1.1428-0.60302 2.4974 0.047644 3.6238s1.8162 1.8176 3.1147 1.8496l0.20267 0.0049778c3.5748 0.0896 6.4455 2.9604 6.5351 6.5344l0.0049778 0.20338c0.032711 1.3006 0.72462 2.4647 1.851 3.1154 1.125 0.65067 2.4796 0.66702 3.6238 0.046222l0.18702-0.10098c3.1367-1.7052 7.0542-0.65493 8.9202 2.3908l0.11236 0.18347c0.67982 1.1086 1.8603 1.7707 3.1602 1.7707s2.4804-0.66204 3.1588-1.7692l0.11378-0.18631c1.8652-3.0436 5.7828-4.0924 8.918-2.3886l0.18844 0.10169c1.142 0.6208 2.4974 0.60373 3.6231-0.046222 1.1264-0.65067 1.8183-1.8155 1.851-3.1168l0.0049777-0.20053c0.0896-3.5755 2.9604-6.4462 6.5365-6.5351l0.20053-0.0049777c1.2999-0.032 2.4647-0.72391 3.1154-1.8496 0.65067-1.1257 0.66844-2.4804 0.046933-3.6245l-0.10169-0.18702c-1.7038-3.136-0.65493-7.0535 2.3872-8.9188l0.18702-0.11378c1.1079-0.67982 1.77-1.861 1.77-3.1602s-0.66204-2.4804-1.7692-3.1595" fill="#44db8b"/>
  <path d="m43 64.333c-11.763 0-21.333-9.5701-21.333-21.333s9.5701-21.333 21.333-21.333 21.333 9.5701 21.333 21.333-9.5701 21.333-21.333 21.333" fill="#fff"/>
  <g fill="#44db8b">
   <path d="m51.169 33.307c-0.59498-0.46656-1.479-0.39351-1.9765 0.16385l-8.2118 9.191-3.7761-3.5423c-0.26311-0.24677-0.62023-0.38562-0.9921-0.38562-0.37186 0-0.72899 0.13885-0.9921 0.38562l-3.8091 3.5725c-0.54797 0.51394-0.54797 1.347 0 1.861l9.0201 8.4612c0.26381 0.24743 0.62094 0.38562 0.9921 0.38562 0.020347 0 0.041396 0 0.061743-0.0013161 0.39361-0.015793 0.76126-0.18689 1.0138-0.46985l12.974-14.522c0.23925-0.26783 0.35502-0.6133 0.32204-0.96075s-0.21119-0.66923-0.49675-0.89297z"/>
   <path d="m29.044 7.8772c0.78926-0.33972 1.1648-1.2805 0.83709-2.1018l-0.03468-0.085863-0.060988-0.1543-1.8093-4.542c-0.32766-0.8213-1.2317-1.2108-2.021-0.86983-0.78926 0.33972-1.1648 1.2805-0.83709 2.1005l1.8081 4.5433 0.060988 0.15306 0.033484 0.085863c0.32886 0.8213 1.2329 1.2108 2.0234 0.87107"/>
   <path d="m7.8773 57.146c-0.33954-0.94481-1.2823-1.3971-2.1019-1.0051l-0.085817 0.041641-0.15298 0.07323-4.5421 2.1725c-0.8221 0.39056-1.2114 1.4775-0.87185 2.4252 0.33954 0.94769 1.281 1.3957 2.1019 1.0051l4.5446-2.1739 0.15298-0.07323 0.084573-0.040205c0.82086-0.39343 1.2101-1.4775 0.87061-2.4252"/>
   <path d="m5.5319 29.743c0.001244 0.0014366 0.0037318 0.0014366 0.0062198 0.0028732l0.23759 0.11349c0.82101 0.39075 1.7627-0.0589 2.1023-1.0056 0.33835-0.94814-0.051002-2.0342-0.87201-2.4264l-0.23635-0.11349h-0.0037318l-4.5404-2.1721c-0.82101-0.39218-1.7627 0.0589-2.1023 1.0056-0.34084 0.94814 0.049758 2.0342 0.87201 2.4278z"/>
   <path d="m56.954 78.123c-0.78689 0.33976-1.1648 1.2819-0.83473 2.102l0.032289 0.085872 0.062186 0.15183 1.8118 4.5438c0.32289 0.82014 1.2318 1.2109 2.0187 0.86992 0.78929-0.33976 1.1648-1.2794 0.83712-2.102l-1.8094-4.5438-0.06099-0.15308-0.034681-0.083383c-0.32648-0.82139-1.2306-1.2122-2.0222-0.87117"/>
   <path d="m83.773 24.142-4.5414 2.1719-0.15304 0.073258-0.085851 0.038784c-0.82119 0.39215-1.2094 1.4795-0.87095 2.4261 0.33967 0.94805 1.2815 1.3991 2.1015 1.0055l0.083363-0.04022 0.15428-0.071822 4.5451-2.1719c0.81994-0.39358 1.2119-1.4795 0.86971-2.4276-0.33967-0.94517-1.2803-1.3977-2.1027-1.0041"/>
   <path d="m80.467 56.259c-0.0012443-0.0014363-0.0037328-0.0028725-0.0062214-0.0028725l-0.23641-0.11347c-0.81998-0.39354-1.7619 0.057451-2.1028 1.0025-0.3372 0.94795 0.049771 2.0338 0.87099 2.4273l0.2389 0.11347c0.0012443 0 0.0024886 0 0.0037329 0.0014363l4.5379 2.1717c0.82246 0.39067 1.7631-0.056015 2.1041-1.0068 0.33969-0.94651-0.049771-2.0338-0.87099-2.4244z"/>
   <path d="m58.978 7.0067 0.094491-0.23772c0-0.0012446 0-0.0024892 0.0011961-0.0037338l1.8085-4.5403c0.32653-0.82144-0.047843-1.7624-0.83606-2.1021-0.79061-0.33978-1.696 0.049784-2.0202 0.87122l-1.8109 4.5378c-0.0011961 0.0024892-0.0023922 0.0037338-0.0035883 0.006223l-0.093295 0.23772c-0.32653 0.82144 0.047843 1.7636 0.83726 2.1021 0.79061 0.33853 1.696-0.051029 2.0226-0.87122"/>
   <path d="m27.022 78.994-0.094504 0.23649c0 0.0012447-0.0011962 0.003734-0.0011962 0.003734l-1.8075 4.5393c-0.32777 0.82272 0.04785 1.7637 0.83618 2.1047 0.79072 0.33855 1.6951-0.051031 2.0229-0.87126l1.8075-4.5368c0.0011962-0.0012447 0.0011962-0.0049787 0.0023925-0.007468l0.094504-0.23649c0.32658-0.82148-0.04785-1.7649-0.83738-2.1035s-1.6951 0.048542-2.0229 0.87126"/>
   <g transform="translate(4)">
    <path d="m39 2c0.55199 0 0.99961-0.43 0.99961-0.95952v-0.080208c0-0.53026-0.44762-0.96027-0.99961-0.96027-0.55276 0-1.0004 0.43-1.0004 0.96027v0.080208c-0.0007731 0.53026 0.44762 0.95952 1.0004 0.95952"/>
    <path d="m8.3417 14.716c0.3787 0.3787 0.99483 0.3787 1.3743 0 0.3787-0.37945 0.3787-0.99483 0-1.3735l-0.057105-0.057857c-0.37945-0.37945-0.99559-0.37945-1.3743 0-0.37945 0.37945-0.37945 0.99408 0 1.3735z"/>
    <path d="m39.001 84c-0.5522 0-1.0008 0.43059-1.0008 0.96065v0.079436c0 0.53081 0.44857 0.95991 1.0008 0.95991s0.99923-0.4291 0.99923-0.95991v-0.079436c0-0.53007-0.44702-0.96065-0.99923-0.96065"/>
    <path d="m69.657 71.285c-0.37852-0.38013-0.99437-0.38013-1.3729 0-0.37927 0.37938-0.37927 0.99465 0 1.3733l0.057078 0.057094c0.37927 0.37938 0.99437 0.37938 1.3729 0 0.38077-0.37863 0.38077-0.9939 0-1.3733z"/>
    <path d="m69.657 14.716 0.057824-0.057859c0.37999-0.37947 0.37999-0.99413 0-1.3736-0.37924-0.37947-0.99427-0.37947-1.3735 0l-0.057073 0.057108c-0.37924 0.37872-0.37924 0.99413 0 1.3736 0.37848 0.37947 0.99427 0.37947 1.3728 0.0007515"/>
    <path d="m8.3422 71.285-0.057819 0.057095c-0.3792 0.38013-0.3792 0.9939 0 1.3733 0.3792 0.37938 0.99418 0.37938 1.3741 0l0.057068-0.057846c0.3792-0.37863 0.3792-0.99314 0-1.3725-0.3792-0.38013-0.99418-0.38013-1.3734 0"/>
    <path d="m0.34222 42.285-0.057819 0.057095c-0.3792 0.38013-0.3792 0.9939 0 1.3733 0.3792 0.37938 0.99418 0.37938 1.3741 0l0.057068-0.057846c0.3792-0.37863 0.3792-0.99314 0-1.3725-0.3792-0.38013-0.99418-0.38013-1.3734 0"/>
    <path d="m78.342 42.285-0.057819 0.057095c-0.3792 0.38013-0.3792 0.9939 0 1.3733 0.3792 0.37938 0.99418 0.37938 1.3741 0l0.057068-0.057846c0.3792-0.37863 0.3792-0.99314 0-1.3725-0.3792-0.38013-0.99418-0.38013-1.3734 0"/>
   </g>
  </g>
 </g>
</svg>